# Blender 4.4.3
# www.blender.org
mtllib t02.mtl
o Plane
v -5.521552 1.000000 0.000000
v -5.521552 -1.000000 0.000000
v 5.521552 1.000000 0.000000
v 5.521552 -1.000000 0.000000
vn -0.0000 -0.0000 1.0000
vt 0.000000 0.000000
vt 1.000000 1.000000
vt 0.000000 1.000000
vt 1.000000 0.000000
s 0
usemtl road
f 2/1/1 3/2/1 1/3/1
f 2/1/1 4/4/1 3/2/1
o Plane.001
v -5.521552 1.000000 0.000000
v 5.521552 1.000000 0.000000
v -5.521552 2.969865 1.092833
v 5.521552 2.969865 1.092833
v -5.521552 -1.000000 0.000000
v 5.521552 -1.000000 0.000000
v -5.521552 -2.969865 1.092833
v 5.521552 -2.969865 1.092833
vn -0.0000 -0.4851 0.8744
vn -0.0000 0.4851 0.8744
vt 1.000000 0.000000
vt 0.000000 1.000000
vt 0.000000 0.000000
vt 1.000000 1.000000
s 0
usemtl stands
f 6/5/2 7/6/2 5/7/2
f 11/6/3 10/5/3 9/7/3
f 6/5/2 8/8/2 7/6/2
f 11/6/3 12/8/3 10/5/3
